# xmcd
# 
# Track frame offsets:
#     150
#     19522
#     43408
#     59436
#     72544
#     90317
#     103854
#     119043
#     139503
#     151035
#     163067
#     176094
#     187883
#     206231
#     216906
#     225104
#     238713
# 
# Disc length: 3317
# 
# Revision: 2
# Processed by: cddbd v1.5.2PL0 Copyright (c) Steve Scherf et al.
# Submitted via: fre:ac v1.0.31
# 
DISCID=ee0cf311
DTITLE=Chris Isaak - First Comes The Night [Deluxe Edition]
DYEAR=2015
DGENRE=Rock/Pop
TTITLE0=First Comes The Night
TTITLE1=Please Don't Call
TTITLE2=Perfect Lover
TTITLE3=Down In Flames
TTITLE4=Reverie
TTITLE5=Baby What You Want Me To Do
TTITLE6=Kiss Me Like A Stranger
TTITLE7=Dry Your Eyes
TTITLE8=Don't Break My Heart
TTITLE9=Running Down The Road
TTITLE10=Insects
TTITLE11=The Way Things Really Are
TTITLE12=Some Days Are Harder Than The Rest (Bonus Track)
TTITLE13=Keep Hanging On (Bonus Track)
TTITLE14=Every Night I Miss You More (Bonus Track)
TTITLE15=The Girl That Broke My Heart (Bonus Track)
TTITLE16=Love The Way You Kiss Me (Bonus Track)
EXTD=
EXTT0=
EXTT1=
EXTT2=
EXTT3=
EXTT4=
EXTT5=
EXTT6=
EXTT7=
EXTT8=
EXTT9=
EXTT10=
EXTT11=
EXTT12=
EXTT13=
EXTT14=
EXTT15=
EXTT16=
PLAYORDER=
